<?xml version="1.0" encoding="UTF-8"?>
<svg width="32" height="32" viewBox="0 0 32 32" xmlns="http://www.w3.org/2000/svg">
  <!-- Official PostgreSQL Logo -->
  <defs>
    <linearGradient id="postgresql-gradient" x1="0%" y1="0%" x2="100%" y2="100%">
      <stop offset="0%" stop-color="#336791"/>
      <stop offset="100%" stop-color="#2E5A7A"/>
    </linearGradient>
  </defs>
  <path fill="url(#postgresql-gradient)" d="M23.645 21.542c-.828 0-1.5.672-1.5 1.5 0 .829.672 1.5 1.5 1.5.829 0 1.5-.671 1.5-1.5 0-.828-.671-1.5-1.5-1.5zm-15.29 0c-.828 0-1.5.672-1.5 1.5 0 .829.672 1.5 1.5 1.5.829 0 1.5-.671 1.5-1.5 0-.828-.671-1.5-1.5-1.5z"/>
  <circle cx="16" cy="16" r="14" fill="none" stroke="#336791" stroke-width="1.5"/>
  <path fill="white" d="M16 6c-2.2 0-4.2.4-5.8 1.1-1.6.7-2.9 1.8-3.8 3.1C5.5 11.5 5 13 5 14.5c0 1.5.5 3 1.4 4.3.9 1.3 2.2 2.4 3.8 3.1 1.6.7 3.6 1.1 5.8 1.1s4.2-.4 5.8-1.1c1.6-.7 2.9-1.8 3.8-3.1.9-1.3 1.4-2.8 1.4-4.3 0-1.5-.5-3-1.4-4.3-.9-1.3-2.2-2.4-3.8-3.1C20.2 6.4 18.2 6 16 6z"/>
  <ellipse cx="16" cy="16" rx="6" ry="9" fill="#336791" opacity="0.8"/>
  <text x="16" y="20" text-anchor="middle" font-family="Arial, sans-serif" font-size="4" font-weight="bold" fill="white">PG</text>
</svg>